<svg width="24" height="24" viewBox="0 0 24 24" fill="none" xmlns="http://www.w3.org/2000/svg">
<g clip-path="url(#clip0_9877_14717)">
<path d="M19.6562 7.9375H6.6875V2.625C6.6875 2.28125 6.40625 2 6.0625 2H5.90625C3.75 2 2 3.75 2 5.90625V18.0938C2 20.25 3.75 22 5.90625 22H19.6562C20.9492 22 22 20.9492 22 19.6562V10.2812C22 8.98828 20.9492 7.9375 19.6562 7.9375ZM3.5625 5.90625C3.5625 5.07812 3.99609 4.34766 4.64453 3.92969C4.85156 3.79688 5.125 3.94922 5.125 4.19531V14.0195C5.125 14.1602 5.03125 14.2852 4.89453 14.3203C4.40625 14.4531 3.95703 14.6758 3.5625 14.9688V5.90625ZM20.4375 19.6562C20.4375 20.0859 20.0859 20.4375 19.6562 20.4375H5.94141C4.65625 20.4375 3.58203 19.418 3.5625 18.1289C3.54297 16.8203 4.60156 15.75 5.90625 15.75H6.0625C6.40625 15.75 6.6875 15.4688 6.6875 15.125V9.5H19.6562C20.0859 9.5 20.4375 9.85156 20.4375 10.2812V19.6562Z" fill="#4d4d4d"/>
<path d="M8.09375 18.875H19.0312V11.0625H8.09375V18.875ZM17.4688 14.1875H15.9062V15.75H17.4688V17.3125H9.65625V15.75H14.3438V12.625H17.4688V14.1875ZM12.7812 12.625V14.1875H9.65625V12.625H12.7812Z" fill="#4d4d4d"/>
</g>
<defs>
<clipPath id="clip0_9877_14717">
<rect width="24" height="24" fill="#4d4d4d"/>
</clipPath>
</defs>
</svg>
