<svg width="24" height="24" viewBox="0 0 24 24" fill="none" xmlns="http://www.w3.org/2000/svg">
<path d="M11.999 5.12456C9.84541 5.12456 8.09331 6.87666 8.09331 9.03026C8.09331 11.1839 9.84541 12.936 11.999 12.936C14.1526 12.936 15.9047 11.1839 15.9047 9.03026C15.9047 6.87666 14.1526 5.12456 11.999 5.12456ZM11.999 11.3737C10.7068 11.3737 9.65559 10.3224 9.65559 9.03026C9.65559 7.7381 10.7068 6.68684 11.999 6.68684C13.2912 6.68684 14.3424 7.7381 14.3424 9.03026C14.3424 10.3224 13.2912 11.3737 11.999 11.3737ZM16.9707 4.05862C15.6431 2.73111 13.8775 2 11.999 2C10.1205 2 8.35488 2.73111 7.02737 4.05862C5.69986 5.38609 4.96875 7.15174 4.96875 9.03026C4.96875 13.9553 11.1495 21.0347 11.4126 21.3337L11.999 22L12.5854 21.3337C12.8485 21.0347 19.0293 13.9553 19.0293 9.03026C19.0293 7.15174 18.2982 5.38609 16.9707 4.05862ZM11.9988 19.6014C10.4785 17.7362 6.53103 12.5537 6.53103 9.03026C6.53103 6.01522 8.98397 3.56228 11.999 3.56228C15.0141 3.56228 17.467 6.01522 17.467 9.03026C17.467 12.5499 13.5188 17.7355 11.9988 19.6014Z" fill="#4d4d4d"/>
</svg>
