<svg width="24" height="24" viewBox="0 0 24 24" fill="none" xmlns="http://www.w3.org/2000/svg">
<path d="M22 12.1016C21.4258 11.5156 20.7497 11.03 20 10.6738V6H22V12.1016Z" fill="white"/>
<path d="M10.0723 18C10.1733 18.7062 10.3794 19.3782 10.6748 20H4V18H10.0723Z" fill="white"/>
<path d="M4 14H10.6748C10.3794 14.6218 10.1733 15.2938 10.0723 16H2V13H4V14ZM18 10.0723C17.6733 10.0255 17.3396 10 17 10C16.6604 10 16.3267 10.0255 16 10.0723V6H11V4H18V10.0723ZM9 9H2V4H9V9Z" fill="white"/>
<path d="M17 12C18.3833 12 19.5621 12.4879 20.5371 13.4629C21.5121 14.4379 22 15.6167 22 17C22 18.3833 21.5121 19.5621 20.5371 20.5371C19.5621 21.5121 18.3833 22 17 22C15.6167 22 14.4379 21.5121 13.4629 20.5371C12.4879 19.5621 12 18.3833 12 17C12 15.6167 12.4879 14.4379 13.4629 13.4629C14.4379 12.4879 15.6167 12 17 12ZM17 16.25L15.25 14.5L14.5 15.25L16.25 17L14.5 18.75L15.2246 19.4746L16.9746 17.7246L18.7246 19.4746L19.4746 18.7246L17.75 17L19.5 15.25L18.75 14.5L17 16.25Z" fill="white"/>
</svg>
