<svg width="24" height="24" viewBox="0 0 24 24" fill="none" xmlns="http://www.w3.org/2000/svg">
<path d="M2 20.5V12.5H10V20.5H2ZM4 18.5H8V14.5H4V18.5ZM5.5 10L11 1L16.5 10H5.5ZM9.05 8H12.95L11 4.85L9.05 8ZM21.575 22.95L18.925 20.3C18.575 20.5333 18.1958 20.7083 17.7875 20.825C17.3792 20.9417 16.95 21 16.5 21C15.25 21 14.1875 20.5625 13.3125 19.6875C12.4375 18.8125 12 17.75 12 16.5C12 15.25 12.4375 14.1875 13.3125 13.3125C14.1875 12.4375 15.25 12 16.5 12C17.75 12 18.8125 12.4375 19.6875 13.3125C20.5625 14.1875 21 15.25 21 16.5C21 16.9333 20.9417 17.3542 20.825 17.7625C20.7083 18.1708 20.5417 18.55 20.325 18.9L22.975 21.55L21.575 22.95ZM16.5 19C17.2 19 17.7917 18.7583 18.275 18.275C18.7583 17.7917 19 17.2 19 16.5C19 15.8 18.7583 15.2083 18.275 14.725C17.7917 14.2417 17.2 14 16.5 14C15.8 14 15.2083 14.2417 14.725 14.725C14.2417 15.2083 14 15.8 14 16.5C14 17.2 14.2417 17.7917 14.725 18.275C15.2083 18.7583 15.8 19 16.5 19Z" fill="white"/>
</svg>
