<svg width="440" height="420" viewBox="0 0 440 420" fill="none" xmlns="http://www.w3.org/2000/svg">
<path d="M24 0.5H416C428.979 0.5 439.5 11.0213 439.5 24V396C439.5 408.979 428.979 419.5 416 419.5H24C11.0213 419.5 0.5 408.979 0.5 396V24C0.5 11.0213 11.0213 0.5 24 0.5Z" fill="#EFFBFE"/>
<path d="M24 0.5H416C428.979 0.5 439.5 11.0213 439.5 24V396C439.5 408.979 428.979 419.5 416 419.5H24C11.0213 419.5 0.5 408.979 0.5 396V24C0.5 11.0213 11.0213 0.5 24 0.5Z" stroke="#C4EBF5"/>
<path d="M41.476 53V50.84H44.356V42.434H41.926V40.778C42.598 40.658 43.174 40.514 43.654 40.346C44.146 40.166 44.602 39.938 45.022 39.662H46.984V50.84H49.486V53H41.476ZM55.9272 53.252C55.0272 53.252 54.2352 52.994 53.5512 52.478C52.8792 51.95 52.3512 51.17 51.9672 50.138C51.5952 49.094 51.4092 47.804 51.4092 46.268C51.4092 44.744 51.5952 43.478 51.9672 42.47C52.3512 41.45 52.8792 40.688 53.5512 40.184C54.2352 39.68 55.0272 39.428 55.9272 39.428C56.8392 39.428 57.6312 39.686 58.3032 40.202C58.9752 40.706 59.4972 41.462 59.8692 42.47C60.2532 43.478 60.4452 44.744 60.4452 46.268C60.4452 47.804 60.2532 49.094 59.8692 50.138C59.4972 51.17 58.9752 51.95 58.3032 52.478C57.6312 52.994 56.8392 53.252 55.9272 53.252ZM55.9272 51.182C56.3232 51.182 56.6712 51.032 56.9712 50.732C57.2712 50.432 57.5052 49.928 57.6732 49.22C57.8412 48.5 57.9252 47.516 57.9252 46.268C57.9252 45.032 57.8412 44.066 57.6732 43.37C57.5052 42.662 57.2712 42.17 56.9712 41.894C56.6712 41.606 56.3232 41.462 55.9272 41.462C55.5552 41.462 55.2132 41.606 54.9012 41.894C54.6012 42.17 54.3612 42.662 54.1812 43.37C54.0012 44.066 53.9112 45.032 53.9112 46.268C53.9112 47.516 54.0012 48.5 54.1812 49.22C54.3612 49.928 54.6012 50.432 54.9012 50.732C55.2132 51.032 55.5552 51.182 55.9272 51.182ZM62.6204 40.004H76.3544V41.912H62.6204V40.004ZM61.9724 51.002H77.0744V52.928H61.9724V51.002ZM68.2904 48.788H70.6844V51.758H68.2904V48.788ZM69.4784 42.614C70.6304 42.614 71.6264 42.746 72.4664 43.01C73.3184 43.262 73.9724 43.634 74.4284 44.126C74.8844 44.606 75.1124 45.188 75.1124 45.872C75.1124 46.556 74.8844 47.144 74.4284 47.636C73.9724 48.116 73.3184 48.488 72.4664 48.752C71.6264 49.004 70.6244 49.13 69.4604 49.13C68.3084 49.13 67.3064 49.004 66.4544 48.752C65.6144 48.488 64.9664 48.116 64.5104 47.636C64.0544 47.144 63.8264 46.556 63.8264 45.872C63.8264 45.188 64.0544 44.606 64.5104 44.126C64.9664 43.634 65.6144 43.262 66.4544 43.01C67.3064 42.746 68.3144 42.614 69.4784 42.614ZM69.4604 44.468C68.7764 44.468 68.1944 44.522 67.7144 44.63C67.2344 44.726 66.8684 44.876 66.6164 45.08C66.3764 45.284 66.2564 45.548 66.2564 45.872C66.2564 46.184 66.3764 46.448 66.6164 46.664C66.8684 46.868 67.2344 47.018 67.7144 47.114C68.1944 47.21 68.7764 47.258 69.4604 47.258C70.1684 47.258 70.7564 47.21 71.2244 47.114C71.6924 47.018 72.0464 46.868 72.2864 46.664C72.5384 46.448 72.6644 46.184 72.6644 45.872C72.6644 45.548 72.5384 45.284 72.2864 45.08C72.0464 44.876 71.6924 44.726 71.2244 44.63C70.7564 44.522 70.1684 44.468 69.4604 44.468ZM68.2904 38.096H70.6844V41.192H68.2904V38.096ZM90.015 37.916H92.409V54.584H90.015V37.916ZM85.101 39.644H87.459C87.459 40.916 87.333 42.134 87.081 43.298C86.841 44.45 86.433 45.536 85.857 46.556C85.293 47.576 84.513 48.524 83.517 49.4C82.533 50.264 81.303 51.056 79.827 51.776L78.567 49.886C80.175 49.106 81.453 48.248 82.401 47.312C83.361 46.364 84.051 45.296 84.471 44.108C84.891 42.908 85.101 41.564 85.101 40.076V39.644ZM79.467 39.644H86.217V41.552H79.467V39.644Z" fill="#31343A"/>
<path d="M44.9834 85.9922V96H43.7188V87.5713L41.1689 88.501V87.3594L44.7852 85.9922H44.9834ZM54.5302 90.2305V91.748C54.5302 92.5638 54.4573 93.252 54.3114 93.8125C54.1656 94.373 53.956 94.8242 53.6825 95.166C53.4091 95.5078 53.0787 95.7562 52.6913 95.9111C52.3085 96.0615 51.8756 96.1367 51.3925 96.1367C51.0097 96.1367 50.6565 96.0889 50.3329 95.9932C50.0094 95.8975 49.7177 95.7448 49.4579 95.5352C49.2027 95.321 48.984 95.043 48.8017 94.7012C48.6194 94.3594 48.4804 93.9447 48.3847 93.457C48.289 92.9694 48.2411 92.3997 48.2411 91.748V90.2305C48.2411 89.4147 48.314 88.7311 48.4599 88.1797C48.6103 87.6283 48.8222 87.1862 49.0956 86.8535C49.3691 86.5163 49.6972 86.2747 50.08 86.1289C50.4674 85.9831 50.9003 85.9102 51.3788 85.9102C51.7662 85.9102 52.1217 85.958 52.4452 86.0537C52.7734 86.1449 53.065 86.293 53.3202 86.498C53.5754 86.6986 53.7919 86.9674 53.9696 87.3047C54.1519 87.6374 54.2909 88.0452 54.3866 88.5283C54.4823 89.0114 54.5302 89.5788 54.5302 90.2305ZM53.2587 91.9531V90.0186C53.2587 89.5719 53.2314 89.18 53.1767 88.8428C53.1265 88.501 53.0514 88.2093 52.9511 87.9678C52.8508 87.7262 52.7232 87.5303 52.5683 87.3799C52.4179 87.2295 52.2424 87.1201 52.0419 87.0518C51.846 86.9788 51.6249 86.9424 51.3788 86.9424C51.078 86.9424 50.8114 86.9993 50.579 87.1133C50.3466 87.2227 50.1506 87.3981 49.9911 87.6396C49.8362 87.8812 49.7177 88.1979 49.6357 88.5898C49.5536 88.9818 49.5126 89.458 49.5126 90.0186V91.9531C49.5126 92.3997 49.5377 92.7939 49.5878 93.1357C49.6425 93.4775 49.7223 93.7738 49.8271 94.0244C49.9319 94.2705 50.0595 94.4733 50.2099 94.6328C50.3603 94.7923 50.5335 94.9108 50.7294 94.9883C50.9299 95.0612 51.151 95.0977 51.3925 95.0977C51.7024 95.0977 51.9736 95.0384 52.206 94.9199C52.4384 94.8014 52.6321 94.6169 52.787 94.3662C52.9465 94.111 53.065 93.7852 53.1425 93.3887C53.22 92.9876 53.2587 92.5091 53.2587 91.9531ZM61.9852 90.2305V91.748C61.9852 92.5638 61.9123 93.252 61.7664 93.8125C61.6206 94.373 61.411 94.8242 61.1375 95.166C60.8641 95.5078 60.5337 95.7562 60.1463 95.9111C59.7635 96.0615 59.3306 96.1367 58.8475 96.1367C58.4647 96.1367 58.1115 96.0889 57.7879 95.9932C57.4644 95.8975 57.1727 95.7448 56.9129 95.5352C56.6577 95.321 56.439 95.043 56.2567 94.7012C56.0744 94.3594 55.9354 93.9447 55.8397 93.457C55.744 92.9694 55.6961 92.3997 55.6961 91.748V90.2305C55.6961 89.4147 55.769 88.7311 55.9149 88.1797C56.0653 87.6283 56.2772 87.1862 56.5506 86.8535C56.8241 86.5163 57.1522 86.2747 57.535 86.1289C57.9224 85.9831 58.3553 85.9102 58.8338 85.9102C59.2212 85.9102 59.5767 85.958 59.9002 86.0537C60.2284 86.1449 60.52 86.293 60.7752 86.498C61.0304 86.6986 61.2469 86.9674 61.4246 87.3047C61.6069 87.6374 61.7459 88.0452 61.8416 88.5283C61.9373 89.0114 61.9852 89.5788 61.9852 90.2305ZM60.7137 91.9531V90.0186C60.7137 89.5719 60.6864 89.18 60.6317 88.8428C60.5815 88.501 60.5064 88.2093 60.4061 87.9678C60.3058 87.7262 60.1782 87.5303 60.0233 87.3799C59.8729 87.2295 59.6974 87.1201 59.4969 87.0518C59.301 86.9788 59.0799 86.9424 58.8338 86.9424C58.533 86.9424 58.2664 86.9993 58.034 87.1133C57.8016 87.2227 57.6056 87.3981 57.4461 87.6396C57.2912 87.8812 57.1727 88.1979 57.0907 88.5898C57.0086 88.9818 56.9676 89.458 56.9676 90.0186V91.9531C56.9676 92.3997 56.9927 92.7939 57.0428 93.1357C57.0975 93.4775 57.1773 93.7738 57.2821 94.0244C57.3869 94.2705 57.5145 94.4733 57.6649 94.6328C57.8153 94.7923 57.9885 94.9108 58.1844 94.9883C58.3849 95.0612 58.606 95.0977 58.8475 95.0977C59.1574 95.0977 59.4286 95.0384 59.661 94.9199C59.8934 94.8014 60.0871 94.6169 60.242 94.3662C60.4015 94.111 60.52 93.7852 60.5975 93.3887C60.675 92.9876 60.7137 92.5091 60.7137 91.9531ZM69.4402 90.2305V91.748C69.4402 92.5638 69.3673 93.252 69.2214 93.8125C69.0756 94.373 68.866 94.8242 68.5925 95.166C68.3191 95.5078 67.9887 95.7562 67.6013 95.9111C67.2185 96.0615 66.7856 96.1367 66.3025 96.1367C65.9197 96.1367 65.5665 96.0889 65.2429 95.9932C64.9194 95.8975 64.6277 95.7448 64.3679 95.5352C64.1127 95.321 63.894 95.043 63.7117 94.7012C63.5294 94.3594 63.3904 93.9447 63.2947 93.457C63.199 92.9694 63.1511 92.3997 63.1511 91.748V90.2305C63.1511 89.4147 63.224 88.7311 63.3699 88.1797C63.5203 87.6283 63.7322 87.1862 64.0056 86.8535C64.2791 86.5163 64.6072 86.2747 64.99 86.1289C65.3774 85.9831 65.8103 85.9102 66.2888 85.9102C66.6762 85.9102 67.0317 85.958 67.3552 86.0537C67.6834 86.1449 67.975 86.293 68.2302 86.498C68.4854 86.6986 68.7019 86.9674 68.8796 87.3047C69.0619 87.6374 69.2009 88.0452 69.2966 88.5283C69.3923 89.0114 69.4402 89.5788 69.4402 90.2305ZM68.1687 91.9531V90.0186C68.1687 89.5719 68.1414 89.18 68.0867 88.8428C68.0365 88.501 67.9614 88.2093 67.8611 87.9678C67.7608 87.7262 67.6332 87.5303 67.4783 87.3799C67.3279 87.2295 67.1524 87.1201 66.9519 87.0518C66.756 86.9788 66.5349 86.9424 66.2888 86.9424C65.988 86.9424 65.7214 86.9993 65.489 87.1133C65.2566 87.2227 65.0606 87.3981 64.9011 87.6396C64.7462 87.8812 64.6277 88.1979 64.5457 88.5898C64.4636 88.9818 64.4226 89.458 64.4226 90.0186V91.9531C64.4226 92.3997 64.4477 92.7939 64.4978 93.1357C64.5525 93.4775 64.6323 93.7738 64.7371 94.0244C64.8419 94.2705 64.9695 94.4733 65.1199 94.6328C65.2703 94.7923 65.4435 94.9108 65.6394 94.9883C65.8399 95.0612 66.061 95.0977 66.3025 95.0977C66.6124 95.0977 66.8836 95.0384 67.116 94.9199C67.3484 94.8014 67.5421 94.6169 67.697 94.3662C67.8565 94.111 67.975 93.7852 68.0525 93.3887C68.13 92.9876 68.1687 92.5091 68.1687 91.9531Z" fill="#242424"/>
<path d="M47.1025 132.907C47.1025 133.513 46.9613 134.028 46.6787 134.452C46.4007 134.871 46.0225 135.19 45.5439 135.409C45.07 135.627 44.5345 135.737 43.9375 135.737C43.3405 135.737 42.8027 135.627 42.3242 135.409C41.8457 135.19 41.4674 134.871 41.1895 134.452C40.9115 134.028 40.7725 133.513 40.7725 132.907C40.7725 132.51 40.8477 132.148 40.998 131.82C41.153 131.487 41.3695 131.198 41.6475 130.952C41.93 130.705 42.2627 130.516 42.6455 130.384C43.0329 130.247 43.459 130.179 43.9238 130.179C44.5345 130.179 45.0791 130.298 45.5576 130.535C46.0361 130.767 46.4121 131.088 46.6855 131.498C46.9635 131.909 47.1025 132.378 47.1025 132.907ZM45.8311 132.879C45.8311 132.51 45.7513 132.184 45.5918 131.902C45.4323 131.615 45.209 131.391 44.9219 131.232C44.6348 131.072 44.3021 130.993 43.9238 130.993C43.5365 130.993 43.2015 131.072 42.9189 131.232C42.641 131.391 42.4245 131.615 42.2695 131.902C42.1146 132.184 42.0371 132.51 42.0371 132.879C42.0371 133.262 42.1123 133.59 42.2627 133.864C42.4176 134.133 42.6364 134.34 42.9189 134.486C43.2061 134.627 43.5456 134.698 43.9375 134.698C44.3294 134.698 44.6667 134.627 44.9492 134.486C45.2318 134.34 45.4482 134.133 45.5986 133.864C45.7536 133.59 45.8311 133.262 45.8311 132.879ZM46.8701 128.238C46.8701 128.721 46.7425 129.156 46.4873 129.543C46.2321 129.931 45.8835 130.236 45.4414 130.459C44.9993 130.683 44.498 130.794 43.9375 130.794C43.3678 130.794 42.8597 130.683 42.4131 130.459C41.971 130.236 41.6247 129.931 41.374 129.543C41.1234 129.156 40.998 128.721 40.998 128.238C40.998 127.659 41.1234 127.167 41.374 126.761C41.6292 126.356 41.9779 126.046 42.4199 125.831C42.862 125.617 43.3656 125.51 43.9307 125.51C44.5003 125.51 45.0062 125.617 45.4482 125.831C45.8903 126.046 46.2367 126.356 46.4873 126.761C46.7425 127.167 46.8701 127.659 46.8701 128.238ZM45.6055 128.258C45.6055 127.925 45.5348 127.632 45.3936 127.376C45.2523 127.121 45.0563 126.921 44.8057 126.775C44.555 126.624 44.2633 126.549 43.9307 126.549C43.598 126.549 43.3063 126.62 43.0557 126.761C42.8096 126.898 42.6159 127.094 42.4746 127.349C42.3379 127.604 42.2695 127.907 42.2695 128.258C42.2695 128.6 42.3379 128.898 42.4746 129.154C42.6159 129.409 42.8118 129.607 43.0625 129.748C43.3132 129.89 43.6048 129.96 43.9375 129.96C44.2702 129.96 44.5596 129.89 44.8057 129.748C45.0563 129.607 45.2523 129.409 45.3936 129.154C45.5348 128.898 45.6055 128.6 45.6055 128.258ZM54.5302 129.83V131.348C54.5302 132.164 54.4573 132.852 54.3114 133.412C54.1656 133.973 53.956 134.424 53.6825 134.766C53.4091 135.108 53.0787 135.356 52.6913 135.511C52.3085 135.661 51.8756 135.737 51.3925 135.737C51.0097 135.737 50.6565 135.689 50.3329 135.593C50.0094 135.497 49.7177 135.345 49.4579 135.135C49.2027 134.921 48.984 134.643 48.8017 134.301C48.6194 133.959 48.4804 133.545 48.3847 133.057C48.289 132.569 48.2411 132 48.2411 131.348V129.83C48.2411 129.015 48.314 128.331 48.4599 127.78C48.6103 127.228 48.8222 126.786 49.0956 126.453C49.3691 126.116 49.6972 125.875 50.08 125.729C50.4674 125.583 50.9003 125.51 51.3788 125.51C51.7662 125.51 52.1217 125.558 52.4452 125.654C52.7734 125.745 53.065 125.893 53.3202 126.098C53.5754 126.299 53.7919 126.567 53.9696 126.905C54.1519 127.237 54.2909 127.645 54.3866 128.128C54.4823 128.611 54.5302 129.179 54.5302 129.83ZM53.2587 131.553V129.619C53.2587 129.172 53.2314 128.78 53.1767 128.443C53.1265 128.101 53.0514 127.809 52.9511 127.568C52.8508 127.326 52.7232 127.13 52.5683 126.98C52.4179 126.829 52.2424 126.72 52.0419 126.652C51.846 126.579 51.6249 126.542 51.3788 126.542C51.078 126.542 50.8114 126.599 50.579 126.713C50.3466 126.823 50.1506 126.998 49.9911 127.24C49.8362 127.481 49.7177 127.798 49.6357 128.19C49.5536 128.582 49.5126 129.058 49.5126 129.619V131.553C49.5126 132 49.5377 132.394 49.5878 132.736C49.6425 133.078 49.7223 133.374 49.8271 133.624C49.9319 133.87 50.0595 134.073 50.2099 134.233C50.3603 134.392 50.5335 134.511 50.7294 134.588C50.9299 134.661 51.151 134.698 51.3925 134.698C51.7024 134.698 51.9736 134.638 52.206 134.52C52.4384 134.401 52.6321 134.217 52.787 133.966C52.9465 133.711 53.065 133.385 53.1425 132.989C53.22 132.588 53.2587 132.109 53.2587 131.553ZM61.9852 129.83V131.348C61.9852 132.164 61.9123 132.852 61.7664 133.412C61.6206 133.973 61.411 134.424 61.1375 134.766C60.8641 135.108 60.5337 135.356 60.1463 135.511C59.7635 135.661 59.3306 135.737 58.8475 135.737C58.4647 135.737 58.1115 135.689 57.7879 135.593C57.4644 135.497 57.1727 135.345 56.9129 135.135C56.6577 134.921 56.439 134.643 56.2567 134.301C56.0744 133.959 55.9354 133.545 55.8397 133.057C55.744 132.569 55.6961 132 55.6961 131.348V129.83C55.6961 129.015 55.769 128.331 55.9149 127.78C56.0653 127.228 56.2772 126.786 56.5506 126.453C56.8241 126.116 57.1522 125.875 57.535 125.729C57.9224 125.583 58.3553 125.51 58.8338 125.51C59.2212 125.51 59.5767 125.558 59.9002 125.654C60.2284 125.745 60.52 125.893 60.7752 126.098C61.0304 126.299 61.2469 126.567 61.4246 126.905C61.6069 127.237 61.7459 127.645 61.8416 128.128C61.9373 128.611 61.9852 129.179 61.9852 129.83ZM60.7137 131.553V129.619C60.7137 129.172 60.6864 128.78 60.6317 128.443C60.5815 128.101 60.5064 127.809 60.4061 127.568C60.3058 127.326 60.1782 127.13 60.0233 126.98C59.8729 126.829 59.6974 126.72 59.4969 126.652C59.301 126.579 59.0799 126.542 58.8338 126.542C58.533 126.542 58.2664 126.599 58.034 126.713C57.8016 126.823 57.6056 126.998 57.4461 127.24C57.2912 127.481 57.1727 127.798 57.0907 128.19C57.0086 128.582 56.9676 129.058 56.9676 129.619V131.553C56.9676 132 56.9927 132.394 57.0428 132.736C57.0975 133.078 57.1773 133.374 57.2821 133.624C57.3869 133.87 57.5145 134.073 57.6649 134.233C57.8153 134.392 57.9885 134.511 58.1844 134.588C58.3849 134.661 58.606 134.698 58.8475 134.698C59.1574 134.698 59.4286 134.638 59.661 134.52C59.8934 134.401 60.0871 134.217 60.242 133.966C60.4015 133.711 60.52 133.385 60.5975 132.989C60.675 132.588 60.7137 132.109 60.7137 131.553Z" fill="#242424"/>
<path d="M45.6807 165.233H45.79V166.306H45.6807C45.0107 166.306 44.4502 166.416 43.999 166.635C43.5479 166.849 43.1901 167.138 42.9258 167.503C42.6615 167.863 42.4701 168.268 42.3516 168.719C42.2376 169.171 42.1807 169.629 42.1807 170.094V171.556C42.1807 171.998 42.2331 172.39 42.3379 172.732C42.4427 173.069 42.5863 173.354 42.7686 173.587C42.9508 173.819 43.1559 173.995 43.3838 174.113C43.6162 174.232 43.8577 174.291 44.1084 174.291C44.4001 174.291 44.6598 174.236 44.8877 174.127C45.1156 174.013 45.307 173.856 45.4619 173.655C45.6214 173.45 45.7422 173.208 45.8242 172.93C45.9062 172.652 45.9473 172.347 45.9473 172.014C45.9473 171.718 45.9108 171.433 45.8379 171.16C45.765 170.882 45.6533 170.636 45.5029 170.422C45.3525 170.203 45.1634 170.032 44.9355 169.909C44.7122 169.781 44.4456 169.718 44.1357 169.718C43.7848 169.718 43.4567 169.804 43.1514 169.977C42.8506 170.146 42.6022 170.369 42.4062 170.647C42.2148 170.921 42.1055 171.219 42.0781 171.543L41.4082 171.536C41.472 171.025 41.5905 170.59 41.7637 170.23C41.9414 169.866 42.1602 169.569 42.4199 169.342C42.6842 169.109 42.9782 168.941 43.3018 168.836C43.6299 168.726 43.9762 168.672 44.3408 168.672C44.8376 168.672 45.266 168.765 45.626 168.952C45.986 169.139 46.2822 169.389 46.5146 169.704C46.7471 170.014 46.918 170.365 47.0273 170.757C47.1413 171.144 47.1982 171.543 47.1982 171.953C47.1982 172.422 47.1322 172.862 47 173.272C46.8678 173.682 46.6696 174.042 46.4053 174.352C46.1455 174.662 45.8242 174.904 45.4414 175.077C45.0586 175.25 44.6143 175.337 44.1084 175.337C43.5706 175.337 43.1012 175.227 42.7002 175.009C42.2992 174.785 41.9665 174.489 41.7021 174.12C41.4378 173.751 41.2396 173.341 41.1074 172.889C40.9753 172.438 40.9092 171.98 40.9092 171.515V170.921C40.9092 170.219 40.9798 169.531 41.1211 168.856C41.2624 168.182 41.5062 167.571 41.8525 167.024C42.2035 166.477 42.6888 166.042 43.3086 165.719C43.9284 165.395 44.7191 165.233 45.6807 165.233ZM54.5302 169.43V170.948C54.5302 171.764 54.4573 172.452 54.3114 173.012C54.1656 173.573 53.956 174.024 53.6825 174.366C53.4091 174.708 53.0787 174.956 52.6913 175.111C52.3085 175.261 51.8756 175.337 51.3925 175.337C51.0097 175.337 50.6565 175.289 50.3329 175.193C50.0094 175.097 49.7177 174.945 49.4579 174.735C49.2027 174.521 48.984 174.243 48.8017 173.901C48.6194 173.559 48.4804 173.145 48.3847 172.657C48.289 172.169 48.2411 171.6 48.2411 170.948V169.43C48.2411 168.615 48.314 167.931 48.4599 167.38C48.6103 166.828 48.8222 166.386 49.0956 166.053C49.3691 165.716 49.6972 165.475 50.08 165.329C50.4674 165.183 50.9003 165.11 51.3788 165.11C51.7662 165.11 52.1217 165.158 52.4452 165.254C52.7734 165.345 53.065 165.493 53.3202 165.698C53.5754 165.899 53.7919 166.167 53.9696 166.505C54.1519 166.837 54.2909 167.245 54.3866 167.728C54.4823 168.211 54.5302 168.779 54.5302 169.43ZM53.2587 171.153V169.219C53.2587 168.772 53.2314 168.38 53.1767 168.043C53.1265 167.701 53.0514 167.409 52.9511 167.168C52.8508 166.926 52.7232 166.73 52.5683 166.58C52.4179 166.429 52.2424 166.32 52.0419 166.252C51.846 166.179 51.6249 166.142 51.3788 166.142C51.078 166.142 50.8114 166.199 50.579 166.313C50.3466 166.423 50.1506 166.598 49.9911 166.84C49.8362 167.081 49.7177 167.398 49.6357 167.79C49.5536 168.182 49.5126 168.658 49.5126 169.219V171.153C49.5126 171.6 49.5377 171.994 49.5878 172.336C49.6425 172.677 49.7223 172.974 49.8271 173.224C49.9319 173.47 50.0595 173.673 50.2099 173.833C50.3603 173.992 50.5335 174.111 50.7294 174.188C50.9299 174.261 51.151 174.298 51.3925 174.298C51.7024 174.298 51.9736 174.238 52.206 174.12C52.4384 174.001 52.6321 173.817 52.787 173.566C52.9465 173.311 53.065 172.985 53.1425 172.589C53.22 172.188 53.2587 171.709 53.2587 171.153ZM61.9852 169.43V170.948C61.9852 171.764 61.9123 172.452 61.7664 173.012C61.6206 173.573 61.411 174.024 61.1375 174.366C60.8641 174.708 60.5337 174.956 60.1463 175.111C59.7635 175.261 59.3306 175.337 58.8475 175.337C58.4647 175.337 58.1115 175.289 57.7879 175.193C57.4644 175.097 57.1727 174.945 56.9129 174.735C56.6577 174.521 56.439 174.243 56.2567 173.901C56.0744 173.559 55.9354 173.145 55.8397 172.657C55.744 172.169 55.6961 171.6 55.6961 170.948V169.43C55.6961 168.615 55.769 167.931 55.9149 167.38C56.0653 166.828 56.2772 166.386 56.5506 166.053C56.8241 165.716 57.1522 165.475 57.535 165.329C57.9224 165.183 58.3553 165.11 58.8338 165.11C59.2212 165.11 59.5767 165.158 59.9002 165.254C60.2284 165.345 60.52 165.493 60.7752 165.698C61.0304 165.899 61.2469 166.167 61.4246 166.505C61.6069 166.837 61.7459 167.245 61.8416 167.728C61.9373 168.211 61.9852 168.779 61.9852 169.43ZM60.7137 171.153V169.219C60.7137 168.772 60.6864 168.38 60.6317 168.043C60.5815 167.701 60.5064 167.409 60.4061 167.168C60.3058 166.926 60.1782 166.73 60.0233 166.58C59.8729 166.429 59.6974 166.32 59.4969 166.252C59.301 166.179 59.0799 166.142 58.8338 166.142C58.533 166.142 58.2664 166.199 58.034 166.313C57.8016 166.423 57.6056 166.598 57.4461 166.84C57.2912 167.081 57.1727 167.398 57.0907 167.79C57.0086 168.182 56.9676 168.658 56.9676 169.219V171.153C56.9676 171.6 56.9927 171.994 57.0428 172.336C57.0975 172.677 57.1773 172.974 57.2821 173.224C57.3869 173.47 57.5145 173.673 57.6649 173.833C57.8153 173.992 57.9885 174.111 58.1844 174.188C58.3849 174.261 58.606 174.298 58.8475 174.298C59.1574 174.298 59.4286 174.238 59.661 174.12C59.8934 174.001 60.0871 173.817 60.242 173.566C60.4015 173.311 60.52 172.985 60.5975 172.589C60.675 172.188 60.7137 171.709 60.7137 171.153Z" fill="#242424"/>
<path d="M47.5537 211.45V212.49H40.3623V211.744L44.8193 204.847H45.8516L44.7441 206.843L41.7979 211.45H47.5537ZM46.166 204.847V214.8H44.9014V204.847H46.166ZM54.5302 209.031V210.548C54.5302 211.364 54.4573 212.052 54.3114 212.613C54.1656 213.173 53.956 213.624 53.6825 213.966C53.4091 214.308 53.0787 214.556 52.6913 214.711C52.3085 214.862 51.8756 214.937 51.3925 214.937C51.0097 214.937 50.6565 214.889 50.3329 214.793C50.0094 214.698 49.7177 214.545 49.4579 214.335C49.2027 214.121 48.984 213.843 48.8017 213.501C48.6194 213.159 48.4804 212.745 48.3847 212.257C48.289 211.769 48.2411 211.2 48.2411 210.548V209.031C48.2411 208.215 48.314 207.531 48.4599 206.98C48.6103 206.428 48.8222 205.986 49.0956 205.654C49.3691 205.316 49.6972 205.075 50.08 204.929C50.4674 204.783 50.9003 204.71 51.3788 204.71C51.7662 204.71 52.1217 204.758 52.4452 204.854C52.7734 204.945 53.065 205.093 53.3202 205.298C53.5754 205.499 53.7919 205.767 53.9696 206.105C54.1519 206.437 54.2909 206.845 54.3866 207.328C54.4823 207.811 54.5302 208.379 54.5302 209.031ZM53.2587 210.753V208.819C53.2587 208.372 53.2314 207.98 53.1767 207.643C53.1265 207.301 53.0514 207.009 52.9511 206.768C52.8508 206.526 52.7232 206.33 52.5683 206.18C52.4179 206.03 52.2424 205.92 52.0419 205.852C51.846 205.779 51.6249 205.742 51.3788 205.742C51.078 205.742 50.8114 205.799 50.579 205.913C50.3466 206.023 50.1506 206.198 49.9911 206.44C49.8362 206.681 49.7177 206.998 49.6357 207.39C49.5536 207.782 49.5126 208.258 49.5126 208.819V210.753C49.5126 211.2 49.5377 211.594 49.5878 211.936C49.6425 212.278 49.7223 212.574 49.8271 212.824C49.9319 213.071 50.0595 213.273 50.2099 213.433C50.3603 213.592 50.5335 213.711 50.7294 213.788C50.9299 213.861 51.151 213.898 51.3925 213.898C51.7024 213.898 51.9736 213.838 52.206 213.72C52.4384 213.601 52.6321 213.417 52.787 213.166C52.9465 212.911 53.065 212.585 53.1425 212.189C53.22 211.788 53.2587 211.309 53.2587 210.753ZM61.9852 209.031V210.548C61.9852 211.364 61.9123 212.052 61.7664 212.613C61.6206 213.173 61.411 213.624 61.1375 213.966C60.8641 214.308 60.5337 214.556 60.1463 214.711C59.7635 214.862 59.3306 214.937 58.8475 214.937C58.4647 214.937 58.1115 214.889 57.7879 214.793C57.4644 214.698 57.1727 214.545 56.9129 214.335C56.6577 214.121 56.439 213.843 56.2567 213.501C56.0744 213.159 55.9354 212.745 55.8397 212.257C55.744 211.769 55.6961 211.2 55.6961 210.548V209.031C55.6961 208.215 55.769 207.531 55.9149 206.98C56.0653 206.428 56.2772 205.986 56.5506 205.654C56.8241 205.316 57.1522 205.075 57.535 204.929C57.9224 204.783 58.3553 204.71 58.8338 204.71C59.2212 204.71 59.5767 204.758 59.9002 204.854C60.2284 204.945 60.52 205.093 60.7752 205.298C61.0304 205.499 61.2469 205.767 61.4246 206.105C61.6069 206.437 61.7459 206.845 61.8416 207.328C61.9373 207.811 61.9852 208.379 61.9852 209.031ZM60.7137 210.753V208.819C60.7137 208.372 60.6864 207.98 60.6317 207.643C60.5815 207.301 60.5064 207.009 60.4061 206.768C60.3058 206.526 60.1782 206.33 60.0233 206.18C59.8729 206.03 59.6974 205.92 59.4969 205.852C59.301 205.779 59.0799 205.742 58.8338 205.742C58.533 205.742 58.2664 205.799 58.034 205.913C57.8016 206.023 57.6056 206.198 57.4461 206.44C57.2912 206.681 57.1727 206.998 57.0907 207.39C57.0086 207.782 56.9676 208.258 56.9676 208.819V210.753C56.9676 211.2 56.9927 211.594 57.0428 211.936C57.0975 212.278 57.1773 212.574 57.2821 212.824C57.3869 213.071 57.5145 213.273 57.6649 213.433C57.8153 213.592 57.9885 213.711 58.1844 213.788C58.3849 213.861 58.606 213.898 58.8475 213.898C59.1574 213.898 59.4286 213.838 59.661 213.72C59.8934 213.601 60.0871 213.417 60.242 213.166C60.4015 212.911 60.52 212.585 60.5975 212.189C60.675 211.788 60.7137 211.309 60.7137 210.753Z" fill="#242424"/>
<path d="M47.3486 253.361V254.4H40.834V253.491L44.0947 249.861C44.4958 249.414 44.8057 249.036 45.0244 248.726C45.2477 248.412 45.4027 248.131 45.4893 247.885C45.5804 247.635 45.626 247.38 45.626 247.12C45.626 246.792 45.5576 246.495 45.4209 246.231C45.2887 245.962 45.0928 245.748 44.833 245.589C44.5732 245.429 44.2588 245.349 43.8896 245.349C43.4476 245.349 43.0785 245.436 42.7822 245.609C42.4906 245.778 42.2718 246.015 42.126 246.32C41.9801 246.625 41.9072 246.976 41.9072 247.373H40.6426C40.6426 246.812 40.7656 246.299 41.0117 245.835C41.2578 245.37 41.6224 245.001 42.1055 244.727C42.5885 244.449 43.1833 244.31 43.8896 244.31C44.5186 244.31 45.0563 244.422 45.5029 244.645C45.9495 244.864 46.2913 245.174 46.5283 245.575C46.7699 245.971 46.8906 246.436 46.8906 246.969C46.8906 247.261 46.8405 247.557 46.7402 247.858C46.6445 248.154 46.5101 248.45 46.3369 248.747C46.1683 249.043 45.9701 249.335 45.7422 249.622C45.5189 249.909 45.2796 250.191 45.0244 250.469L42.3584 253.361H47.3486ZM54.5302 248.63V250.148C54.5302 250.964 54.4573 251.652 54.3114 252.213C54.1656 252.773 53.956 253.224 53.6825 253.566C53.4091 253.908 53.0787 254.156 52.6913 254.311C52.3085 254.462 51.8756 254.537 51.3925 254.537C51.0097 254.537 50.6565 254.489 50.3329 254.393C50.0094 254.297 49.7177 254.145 49.4579 253.935C49.2027 253.721 48.984 253.443 48.8017 253.101C48.6194 252.759 48.4804 252.345 48.3847 251.857C48.289 251.369 48.2411 250.8 48.2411 250.148V248.63C48.2411 247.815 48.314 247.131 48.4599 246.58C48.6103 246.028 48.8222 245.586 49.0956 245.254C49.3691 244.916 49.6972 244.675 50.08 244.529C50.4674 244.383 50.9003 244.31 51.3788 244.31C51.7662 244.31 52.1217 244.358 52.4452 244.454C52.7734 244.545 53.065 244.693 53.3202 244.898C53.5754 245.099 53.7919 245.367 53.9696 245.705C54.1519 246.037 54.2909 246.445 54.3866 246.928C54.4823 247.411 54.5302 247.979 54.5302 248.63ZM53.2587 250.353V248.419C53.2587 247.972 53.2314 247.58 53.1767 247.243C53.1265 246.901 53.0514 246.609 52.9511 246.368C52.8508 246.126 52.7232 245.93 52.5683 245.78C52.4179 245.63 52.2424 245.52 52.0419 245.452C51.846 245.379 51.6249 245.342 51.3788 245.342C51.078 245.342 50.8114 245.399 50.579 245.513C50.3466 245.623 50.1506 245.798 49.9911 246.04C49.8362 246.281 49.7177 246.598 49.6357 246.99C49.5536 247.382 49.5126 247.858 49.5126 248.419V250.353C49.5126 250.8 49.5377 251.194 49.5878 251.536C49.6425 251.878 49.7223 252.174 49.8271 252.424C49.9319 252.671 50.0595 252.873 50.2099 253.033C50.3603 253.192 50.5335 253.311 50.7294 253.388C50.9299 253.461 51.151 253.498 51.3925 253.498C51.7024 253.498 51.9736 253.438 52.206 253.32C52.4384 253.201 52.6321 253.017 52.787 252.766C52.9465 252.511 53.065 252.185 53.1425 251.789C53.22 251.388 53.2587 250.909 53.2587 250.353ZM61.9852 248.63V250.148C61.9852 250.964 61.9123 251.652 61.7664 252.213C61.6206 252.773 61.411 253.224 61.1375 253.566C60.8641 253.908 60.5337 254.156 60.1463 254.311C59.7635 254.462 59.3306 254.537 58.8475 254.537C58.4647 254.537 58.1115 254.489 57.7879 254.393C57.4644 254.297 57.1727 254.145 56.9129 253.935C56.6577 253.721 56.439 253.443 56.2567 253.101C56.0744 252.759 55.9354 252.345 55.8397 251.857C55.744 251.369 55.6961 250.8 55.6961 250.148V248.63C55.6961 247.815 55.769 247.131 55.9149 246.58C56.0653 246.028 56.2772 245.586 56.5506 245.254C56.8241 244.916 57.1522 244.675 57.535 244.529C57.9224 244.383 58.3553 244.31 58.8338 244.31C59.2212 244.31 59.5767 244.358 59.9002 244.454C60.2284 244.545 60.52 244.693 60.7752 244.898C61.0304 245.099 61.2469 245.367 61.4246 245.705C61.6069 246.037 61.7459 246.445 61.8416 246.928C61.9373 247.411 61.9852 247.979 61.9852 248.63ZM60.7137 250.353V248.419C60.7137 247.972 60.6864 247.58 60.6317 247.243C60.5815 246.901 60.5064 246.609 60.4061 246.368C60.3058 246.126 60.1782 245.93 60.0233 245.78C59.8729 245.63 59.6974 245.52 59.4969 245.452C59.301 245.379 59.0799 245.342 58.8338 245.342C58.533 245.342 58.2664 245.399 58.034 245.513C57.8016 245.623 57.6056 245.798 57.4461 246.04C57.2912 246.281 57.1727 246.598 57.0907 246.99C57.0086 247.382 56.9676 247.858 56.9676 248.419V250.353C56.9676 250.8 56.9927 251.194 57.0428 251.536C57.0975 251.878 57.1773 252.174 57.2821 252.424C57.3869 252.671 57.5145 252.873 57.6649 253.033C57.8153 253.192 57.9885 253.311 58.1844 253.388C58.3849 253.461 58.606 253.498 58.8475 253.498C59.1574 253.498 59.4286 253.438 59.661 253.32C59.8934 253.201 60.0871 253.017 60.242 252.766C60.4015 252.511 60.52 252.185 60.5975 251.789C60.675 251.388 60.7137 250.909 60.7137 250.353Z" fill="#242424"/>
<path d="M47.0752 288.23V289.748C47.0752 290.564 47.0023 291.252 46.8564 291.812C46.7106 292.373 46.501 292.824 46.2275 293.166C45.9541 293.508 45.6237 293.756 45.2363 293.911C44.8535 294.062 44.4206 294.137 43.9375 294.137C43.5547 294.137 43.2015 294.089 42.8779 293.993C42.5544 293.897 42.2627 293.745 42.0029 293.535C41.7477 293.321 41.529 293.043 41.3467 292.701C41.1644 292.359 41.0254 291.945 40.9297 291.457C40.834 290.969 40.7861 290.4 40.7861 289.748V288.23C40.7861 287.415 40.859 286.731 41.0049 286.18C41.1553 285.628 41.3672 285.186 41.6406 284.854C41.9141 284.516 42.2422 284.275 42.625 284.129C43.0124 283.983 43.4453 283.91 43.9238 283.91C44.3112 283.91 44.6667 283.958 44.9902 284.054C45.3184 284.145 45.61 284.293 45.8652 284.498C46.1204 284.699 46.3369 284.967 46.5146 285.305C46.6969 285.637 46.8359 286.045 46.9316 286.528C47.0273 287.011 47.0752 287.579 47.0752 288.23ZM45.8037 289.953V288.019C45.8037 287.572 45.7764 287.18 45.7217 286.843C45.6715 286.501 45.5964 286.209 45.4961 285.968C45.3958 285.726 45.2682 285.53 45.1133 285.38C44.9629 285.229 44.7874 285.12 44.5869 285.052C44.391 284.979 44.1699 284.942 43.9238 284.942C43.623 284.942 43.3564 284.999 43.124 285.113C42.8916 285.223 42.6956 285.398 42.5361 285.64C42.3812 285.881 42.2627 286.198 42.1807 286.59C42.0986 286.982 42.0576 287.458 42.0576 288.019V289.953C42.0576 290.4 42.0827 290.794 42.1328 291.136C42.1875 291.478 42.2673 291.774 42.3721 292.024C42.4769 292.271 42.6045 292.473 42.7549 292.633C42.9053 292.792 43.0785 292.911 43.2744 292.988C43.4749 293.061 43.696 293.098 43.9375 293.098C44.2474 293.098 44.5186 293.038 44.751 292.92C44.9834 292.801 45.1771 292.617 45.332 292.366C45.4915 292.111 45.61 291.785 45.6875 291.389C45.765 290.988 45.8037 290.509 45.8037 289.953Z" fill="#242424"/>
<rect x="87" y="90" width="274" height="1" fill="#B6BFCC"/>
<rect x="87" y="129.8" width="274" height="1" fill="#B6BFCC"/>
<rect x="87" y="169.6" width="274" height="1" fill="#B6BFCC"/>
<rect x="87" y="209.4" width="274" height="1" fill="#B6BFCC"/>
<rect x="87" y="249.2" width="274" height="1" fill="#B6BFCC"/>
<rect x="87" y="289" width="274" height="1" fill="#B6BFCC"/>
<path d="M381.983 85.9922V96H380.719V87.5713L378.169 88.501V87.3594L381.785 85.9922H381.983ZM391.53 90.2305V91.748C391.53 92.5638 391.457 93.252 391.311 93.8125C391.166 94.373 390.956 94.8242 390.683 95.166C390.409 95.5078 390.079 95.7562 389.691 95.9111C389.309 96.0615 388.876 96.1367 388.392 96.1367C388.01 96.1367 387.656 96.0889 387.333 95.9932C387.009 95.8975 386.718 95.7448 386.458 95.5352C386.203 95.321 385.984 95.043 385.802 94.7012C385.619 94.3594 385.48 93.9447 385.385 93.457C385.289 92.9694 385.241 92.3997 385.241 91.748V90.2305C385.241 89.4147 385.314 88.7311 385.46 88.1797C385.61 87.6283 385.822 87.1862 386.096 86.8535C386.369 86.5163 386.697 86.2747 387.08 86.1289C387.467 85.9831 387.9 85.9102 388.379 85.9102C388.766 85.9102 389.122 85.958 389.445 86.0537C389.773 86.1449 390.065 86.293 390.32 86.498C390.575 86.6986 390.792 86.9674 390.97 87.3047C391.152 87.6374 391.291 88.0452 391.387 88.5283C391.482 89.0114 391.53 89.5788 391.53 90.2305ZM390.259 91.9531V90.0186C390.259 89.5719 390.231 89.18 390.177 88.8428C390.127 88.501 390.051 88.2093 389.951 87.9678C389.851 87.7262 389.723 87.5303 389.568 87.3799C389.418 87.2295 389.242 87.1201 389.042 87.0518C388.846 86.9788 388.625 86.9424 388.379 86.9424C388.078 86.9424 387.811 86.9993 387.579 87.1133C387.347 87.2227 387.151 87.3981 386.991 87.6396C386.836 87.8812 386.718 88.1979 386.636 88.5898C386.554 88.9818 386.513 89.458 386.513 90.0186V91.9531C386.513 92.3997 386.538 92.7939 386.588 93.1357C386.642 93.4775 386.722 93.7738 386.827 94.0244C386.932 94.2705 387.059 94.4733 387.21 94.6328C387.36 94.7923 387.533 94.9108 387.729 94.9883C387.93 95.0612 388.151 95.0977 388.392 95.0977C388.702 95.0977 388.974 95.0384 389.206 94.9199C389.438 94.8014 389.632 94.6169 389.787 94.3662C389.947 94.111 390.065 93.7852 390.142 93.3887C390.22 92.9876 390.259 92.5091 390.259 91.9531ZM398.985 90.2305V91.748C398.985 92.5638 398.912 93.252 398.766 93.8125C398.621 94.373 398.411 94.8242 398.138 95.166C397.864 95.5078 397.534 95.7562 397.146 95.9111C396.764 96.0615 396.331 96.1367 395.847 96.1367C395.465 96.1367 395.111 96.0889 394.788 95.9932C394.464 95.8975 394.173 95.7448 393.913 95.5352C393.658 95.321 393.439 95.043 393.257 94.7012C393.074 94.3594 392.935 93.9447 392.84 93.457C392.744 92.9694 392.696 92.3997 392.696 91.748V90.2305C392.696 89.4147 392.769 88.7311 392.915 88.1797C393.065 87.6283 393.277 87.1862 393.551 86.8535C393.824 86.5163 394.152 86.2747 394.535 86.1289C394.922 85.9831 395.355 85.9102 395.834 85.9102C396.221 85.9102 396.577 85.958 396.9 86.0537C397.228 86.1449 397.52 86.293 397.775 86.498C398.03 86.6986 398.247 86.9674 398.425 87.3047C398.607 87.6374 398.746 88.0452 398.842 88.5283C398.937 89.0114 398.985 89.5788 398.985 90.2305ZM397.714 91.9531V90.0186C397.714 89.5719 397.686 89.18 397.632 88.8428C397.582 88.501 397.506 88.2093 397.406 87.9678C397.306 87.7262 397.178 87.5303 397.023 87.3799C396.873 87.2295 396.697 87.1201 396.497 87.0518C396.301 86.9788 396.08 86.9424 395.834 86.9424C395.533 86.9424 395.266 86.9993 395.034 87.1133C394.802 87.2227 394.606 87.3981 394.446 87.6396C394.291 87.8812 394.173 88.1979 394.091 88.5898C394.009 88.9818 393.968 89.458 393.968 90.0186V91.9531C393.968 92.3997 393.993 92.7939 394.043 93.1357C394.097 93.4775 394.177 93.7738 394.282 94.0244C394.387 94.2705 394.514 94.4733 394.665 94.6328C394.815 94.7923 394.988 94.9108 395.184 94.9883C395.385 95.0612 395.606 95.0977 395.847 95.0977C396.157 95.0977 396.429 95.0384 396.661 94.9199C396.893 94.8014 397.087 94.6169 397.242 94.3662C397.402 94.111 397.52 93.7852 397.597 93.3887C397.675 92.9876 397.714 92.5091 397.714 91.9531Z" fill="#242424"/>
<path d="M391.103 132.907C391.103 133.513 390.961 134.028 390.679 134.452C390.401 134.871 390.022 135.19 389.544 135.409C389.07 135.627 388.535 135.737 387.938 135.737C387.34 135.737 386.803 135.627 386.324 135.409C385.846 135.19 385.467 134.871 385.189 134.452C384.911 134.028 384.772 133.513 384.772 132.907C384.772 132.51 384.848 132.148 384.998 131.82C385.153 131.487 385.369 131.198 385.647 130.952C385.93 130.705 386.263 130.516 386.646 130.384C387.033 130.247 387.459 130.179 387.924 130.179C388.535 130.179 389.079 130.298 389.558 130.535C390.036 130.767 390.412 131.088 390.686 131.498C390.964 131.909 391.103 132.378 391.103 132.907ZM389.831 132.879C389.831 132.51 389.751 132.184 389.592 131.902C389.432 131.615 389.209 131.391 388.922 131.232C388.635 131.072 388.302 130.993 387.924 130.993C387.536 130.993 387.201 131.072 386.919 131.232C386.641 131.391 386.424 131.615 386.27 131.902C386.115 132.184 386.037 132.51 386.037 132.879C386.037 133.262 386.112 133.59 386.263 133.864C386.418 134.133 386.636 134.34 386.919 134.486C387.206 134.627 387.546 134.698 387.938 134.698C388.329 134.698 388.667 134.627 388.949 134.486C389.232 134.34 389.448 134.133 389.599 133.864C389.754 133.59 389.831 133.262 389.831 132.879ZM390.87 128.238C390.87 128.721 390.743 129.156 390.487 129.543C390.232 129.931 389.883 130.236 389.441 130.459C388.999 130.683 388.498 130.794 387.938 130.794C387.368 130.794 386.86 130.683 386.413 130.459C385.971 130.236 385.625 129.931 385.374 129.543C385.123 129.156 384.998 128.721 384.998 128.238C384.998 127.659 385.123 127.167 385.374 126.761C385.629 126.356 385.978 126.046 386.42 125.831C386.862 125.617 387.366 125.51 387.931 125.51C388.5 125.51 389.006 125.617 389.448 125.831C389.89 126.046 390.237 126.356 390.487 126.761C390.743 127.167 390.87 127.659 390.87 128.238ZM389.605 128.258C389.605 127.925 389.535 127.632 389.394 127.376C389.252 127.121 389.056 126.921 388.806 126.775C388.555 126.624 388.263 126.549 387.931 126.549C387.598 126.549 387.306 126.62 387.056 126.761C386.81 126.898 386.616 127.094 386.475 127.349C386.338 127.604 386.27 127.907 386.27 128.258C386.27 128.6 386.338 128.898 386.475 129.154C386.616 129.409 386.812 129.607 387.062 129.748C387.313 129.89 387.605 129.96 387.938 129.96C388.27 129.96 388.56 129.89 388.806 129.748C389.056 129.607 389.252 129.409 389.394 129.154C389.535 128.898 389.605 128.6 389.605 128.258ZM398.53 129.83V131.348C398.53 132.164 398.457 132.852 398.311 133.412C398.166 133.973 397.956 134.424 397.683 134.766C397.409 135.108 397.079 135.356 396.691 135.511C396.309 135.661 395.876 135.737 395.392 135.737C395.01 135.737 394.656 135.689 394.333 135.593C394.009 135.497 393.718 135.345 393.458 135.135C393.203 134.921 392.984 134.643 392.802 134.301C392.619 133.959 392.48 133.545 392.385 133.057C392.289 132.569 392.241 132 392.241 131.348V129.83C392.241 129.015 392.314 128.331 392.46 127.78C392.61 127.228 392.822 126.786 393.096 126.453C393.369 126.116 393.697 125.875 394.08 125.729C394.467 125.583 394.9 125.51 395.379 125.51C395.766 125.51 396.122 125.558 396.445 125.654C396.773 125.745 397.065 125.893 397.32 126.098C397.575 126.299 397.792 126.567 397.97 126.905C398.152 127.237 398.291 127.645 398.387 128.128C398.482 128.611 398.53 129.179 398.53 129.83ZM397.259 131.553V129.619C397.259 129.172 397.231 128.78 397.177 128.443C397.127 128.101 397.051 127.809 396.951 127.568C396.851 127.326 396.723 127.13 396.568 126.98C396.418 126.829 396.242 126.72 396.042 126.652C395.846 126.579 395.625 126.542 395.379 126.542C395.078 126.542 394.811 126.599 394.579 126.713C394.347 126.823 394.151 126.998 393.991 127.24C393.836 127.481 393.718 127.798 393.636 128.19C393.554 128.582 393.513 129.058 393.513 129.619V131.553C393.513 132 393.538 132.394 393.588 132.736C393.642 133.078 393.722 133.374 393.827 133.624C393.932 133.87 394.059 134.073 394.21 134.233C394.36 134.392 394.533 134.511 394.729 134.588C394.93 134.661 395.151 134.698 395.392 134.698C395.702 134.698 395.974 134.638 396.206 134.52C396.438 134.401 396.632 134.217 396.787 133.966C396.947 133.711 397.065 133.385 397.142 132.989C397.22 132.588 397.259 132.109 397.259 131.553Z" fill="#242424"/>
<path d="M389.681 165.233H389.79V166.306H389.681C389.011 166.306 388.45 166.416 387.999 166.635C387.548 166.849 387.19 167.138 386.926 167.503C386.661 167.863 386.47 168.268 386.352 168.719C386.238 169.171 386.181 169.629 386.181 170.094V171.556C386.181 171.998 386.233 172.39 386.338 172.732C386.443 173.069 386.586 173.354 386.769 173.587C386.951 173.819 387.156 173.995 387.384 174.113C387.616 174.232 387.858 174.291 388.108 174.291C388.4 174.291 388.66 174.236 388.888 174.127C389.116 174.013 389.307 173.856 389.462 173.655C389.621 173.45 389.742 173.208 389.824 172.93C389.906 172.652 389.947 172.347 389.947 172.014C389.947 171.718 389.911 171.433 389.838 171.16C389.765 170.882 389.653 170.636 389.503 170.422C389.353 170.203 389.163 170.032 388.936 169.909C388.712 169.781 388.446 169.718 388.136 169.718C387.785 169.718 387.457 169.804 387.151 169.977C386.851 170.146 386.602 170.369 386.406 170.647C386.215 170.921 386.105 171.219 386.078 171.543L385.408 171.536C385.472 171.025 385.59 170.59 385.764 170.23C385.941 169.866 386.16 169.569 386.42 169.342C386.684 169.109 386.978 168.941 387.302 168.836C387.63 168.726 387.976 168.672 388.341 168.672C388.838 168.672 389.266 168.765 389.626 168.952C389.986 169.139 390.282 169.389 390.515 169.704C390.747 170.014 390.918 170.365 391.027 170.757C391.141 171.144 391.198 171.543 391.198 171.953C391.198 172.422 391.132 172.862 391 173.272C390.868 173.682 390.67 174.042 390.405 174.352C390.146 174.662 389.824 174.904 389.441 175.077C389.059 175.25 388.614 175.337 388.108 175.337C387.571 175.337 387.101 175.227 386.7 175.009C386.299 174.785 385.966 174.489 385.702 174.12C385.438 173.751 385.24 173.341 385.107 172.889C384.975 172.438 384.909 171.98 384.909 171.515V170.921C384.909 170.219 384.98 169.531 385.121 168.856C385.262 168.182 385.506 167.571 385.853 167.024C386.203 166.477 386.689 166.042 387.309 165.719C387.928 165.395 388.719 165.233 389.681 165.233ZM398.53 169.43V170.948C398.53 171.764 398.457 172.452 398.311 173.012C398.166 173.573 397.956 174.024 397.683 174.366C397.409 174.708 397.079 174.956 396.691 175.111C396.309 175.261 395.876 175.337 395.392 175.337C395.01 175.337 394.656 175.289 394.333 175.193C394.009 175.097 393.718 174.945 393.458 174.735C393.203 174.521 392.984 174.243 392.802 173.901C392.619 173.559 392.48 173.145 392.385 172.657C392.289 172.169 392.241 171.6 392.241 170.948V169.43C392.241 168.615 392.314 167.931 392.46 167.38C392.61 166.828 392.822 166.386 393.096 166.053C393.369 165.716 393.697 165.475 394.08 165.329C394.467 165.183 394.9 165.11 395.379 165.11C395.766 165.11 396.122 165.158 396.445 165.254C396.773 165.345 397.065 165.493 397.32 165.698C397.575 165.899 397.792 166.167 397.97 166.505C398.152 166.837 398.291 167.245 398.387 167.728C398.482 168.211 398.53 168.779 398.53 169.43ZM397.259 171.153V169.219C397.259 168.772 397.231 168.38 397.177 168.043C397.127 167.701 397.051 167.409 396.951 167.168C396.851 166.926 396.723 166.73 396.568 166.58C396.418 166.429 396.242 166.32 396.042 166.252C395.846 166.179 395.625 166.142 395.379 166.142C395.078 166.142 394.811 166.199 394.579 166.313C394.347 166.423 394.151 166.598 393.991 166.84C393.836 167.081 393.718 167.398 393.636 167.79C393.554 168.182 393.513 168.658 393.513 169.219V171.153C393.513 171.6 393.538 171.994 393.588 172.336C393.642 172.677 393.722 172.974 393.827 173.224C393.932 173.47 394.059 173.673 394.21 173.833C394.36 173.992 394.533 174.111 394.729 174.188C394.93 174.261 395.151 174.298 395.392 174.298C395.702 174.298 395.974 174.238 396.206 174.12C396.438 174.001 396.632 173.817 396.787 173.566C396.947 173.311 397.065 172.985 397.142 172.589C397.22 172.188 397.259 171.709 397.259 171.153Z" fill="#242424"/>
<path d="M391.554 211.45V212.49H384.362V211.744L388.819 204.847H389.852L388.744 206.843L385.798 211.45H391.554ZM390.166 204.847V214.8H388.901V204.847H390.166ZM398.53 209.031V210.548C398.53 211.364 398.457 212.052 398.311 212.613C398.166 213.173 397.956 213.624 397.683 213.966C397.409 214.308 397.079 214.556 396.691 214.711C396.309 214.862 395.876 214.937 395.392 214.937C395.01 214.937 394.656 214.889 394.333 214.793C394.009 214.698 393.718 214.545 393.458 214.335C393.203 214.121 392.984 213.843 392.802 213.501C392.619 213.159 392.48 212.745 392.385 212.257C392.289 211.769 392.241 211.2 392.241 210.548V209.031C392.241 208.215 392.314 207.531 392.46 206.98C392.61 206.428 392.822 205.986 393.096 205.654C393.369 205.316 393.697 205.075 394.08 204.929C394.467 204.783 394.9 204.71 395.379 204.71C395.766 204.71 396.122 204.758 396.445 204.854C396.773 204.945 397.065 205.093 397.32 205.298C397.575 205.499 397.792 205.767 397.97 206.105C398.152 206.437 398.291 206.845 398.387 207.328C398.482 207.811 398.53 208.379 398.53 209.031ZM397.259 210.753V208.819C397.259 208.372 397.231 207.98 397.177 207.643C397.127 207.301 397.051 207.009 396.951 206.768C396.851 206.526 396.723 206.33 396.568 206.18C396.418 206.03 396.242 205.92 396.042 205.852C395.846 205.779 395.625 205.742 395.379 205.742C395.078 205.742 394.811 205.799 394.579 205.913C394.347 206.023 394.151 206.198 393.991 206.44C393.836 206.681 393.718 206.998 393.636 207.39C393.554 207.782 393.513 208.258 393.513 208.819V210.753C393.513 211.2 393.538 211.594 393.588 211.936C393.642 212.278 393.722 212.574 393.827 212.824C393.932 213.071 394.059 213.273 394.21 213.433C394.36 213.592 394.533 213.711 394.729 213.788C394.93 213.861 395.151 213.898 395.392 213.898C395.702 213.898 395.974 213.838 396.206 213.72C396.438 213.601 396.632 213.417 396.787 213.166C396.947 212.911 397.065 212.585 397.142 212.189C397.22 211.788 397.259 211.309 397.259 210.753Z" fill="#242424"/>
<path d="M391.349 253.361V254.4H384.834V253.491L388.095 249.861C388.496 249.414 388.806 249.036 389.024 248.726C389.248 248.412 389.403 248.131 389.489 247.885C389.58 247.635 389.626 247.38 389.626 247.12C389.626 246.792 389.558 246.495 389.421 246.231C389.289 245.962 389.093 245.748 388.833 245.589C388.573 245.429 388.259 245.349 387.89 245.349C387.448 245.349 387.078 245.436 386.782 245.609C386.491 245.778 386.272 246.015 386.126 246.32C385.98 246.625 385.907 246.976 385.907 247.373H384.643C384.643 246.812 384.766 246.299 385.012 245.835C385.258 245.37 385.622 245.001 386.105 244.727C386.589 244.449 387.183 244.31 387.89 244.31C388.519 244.31 389.056 244.422 389.503 244.645C389.95 244.864 390.291 245.174 390.528 245.575C390.77 245.971 390.891 246.436 390.891 246.969C390.891 247.261 390.84 247.557 390.74 247.858C390.645 248.154 390.51 248.45 390.337 248.747C390.168 249.043 389.97 249.335 389.742 249.622C389.519 249.909 389.28 250.191 389.024 250.469L386.358 253.361H391.349ZM398.53 248.63V250.148C398.53 250.964 398.457 251.652 398.311 252.213C398.166 252.773 397.956 253.224 397.683 253.566C397.409 253.908 397.079 254.156 396.691 254.311C396.309 254.462 395.876 254.537 395.392 254.537C395.01 254.537 394.656 254.489 394.333 254.393C394.009 254.297 393.718 254.145 393.458 253.935C393.203 253.721 392.984 253.443 392.802 253.101C392.619 252.759 392.48 252.345 392.385 251.857C392.289 251.369 392.241 250.8 392.241 250.148V248.63C392.241 247.815 392.314 247.131 392.46 246.58C392.61 246.028 392.822 245.586 393.096 245.254C393.369 244.916 393.697 244.675 394.08 244.529C394.467 244.383 394.9 244.31 395.379 244.31C395.766 244.31 396.122 244.358 396.445 244.454C396.773 244.545 397.065 244.693 397.32 244.898C397.575 245.099 397.792 245.367 397.97 245.705C398.152 246.037 398.291 246.445 398.387 246.928C398.482 247.411 398.53 247.979 398.53 248.63ZM397.259 250.353V248.419C397.259 247.972 397.231 247.58 397.177 247.243C397.127 246.901 397.051 246.609 396.951 246.368C396.851 246.126 396.723 245.93 396.568 245.78C396.418 245.63 396.242 245.52 396.042 245.452C395.846 245.379 395.625 245.342 395.379 245.342C395.078 245.342 394.811 245.399 394.579 245.513C394.347 245.623 394.151 245.798 393.991 246.04C393.836 246.281 393.718 246.598 393.636 246.99C393.554 247.382 393.513 247.858 393.513 248.419V250.353C393.513 250.8 393.538 251.194 393.588 251.536C393.642 251.878 393.722 252.174 393.827 252.424C393.932 252.671 394.059 252.873 394.21 253.033C394.36 253.192 394.533 253.311 394.729 253.388C394.93 253.461 395.151 253.498 395.392 253.498C395.702 253.498 395.974 253.438 396.206 253.32C396.438 253.201 396.632 253.017 396.787 252.766C396.947 252.511 397.065 252.185 397.142 251.789C397.22 251.388 397.259 250.909 397.259 250.353Z" fill="#242424"/>
<path d="M399.075 288.23V289.748C399.075 290.564 399.002 291.252 398.856 291.812C398.711 292.373 398.501 292.824 398.228 293.166C397.954 293.508 397.624 293.756 397.236 293.911C396.854 294.062 396.421 294.137 395.938 294.137C395.555 294.137 395.201 294.089 394.878 293.993C394.554 293.897 394.263 293.745 394.003 293.535C393.748 293.321 393.529 293.043 393.347 292.701C393.164 292.359 393.025 291.945 392.93 291.457C392.834 290.969 392.786 290.4 392.786 289.748V288.23C392.786 287.415 392.859 286.731 393.005 286.18C393.155 285.628 393.367 285.186 393.641 284.854C393.914 284.516 394.242 284.275 394.625 284.129C395.012 283.983 395.445 283.91 395.924 283.91C396.311 283.91 396.667 283.958 396.99 284.054C397.318 284.145 397.61 284.293 397.865 284.498C398.12 284.699 398.337 284.967 398.515 285.305C398.697 285.637 398.836 286.045 398.932 286.528C399.027 287.011 399.075 287.579 399.075 288.23ZM397.804 289.953V288.019C397.804 287.572 397.776 287.18 397.722 286.843C397.672 286.501 397.596 286.209 397.496 285.968C397.396 285.726 397.268 285.53 397.113 285.38C396.963 285.229 396.787 285.12 396.587 285.052C396.391 284.979 396.17 284.942 395.924 284.942C395.623 284.942 395.356 284.999 395.124 285.113C394.892 285.223 394.696 285.398 394.536 285.64C394.381 285.881 394.263 286.198 394.181 286.59C394.099 286.982 394.058 287.458 394.058 288.019V289.953C394.058 290.4 394.083 290.794 394.133 291.136C394.188 291.478 394.267 291.774 394.372 292.024C394.477 292.271 394.604 292.473 394.755 292.633C394.905 292.792 395.078 292.911 395.274 292.988C395.475 293.061 395.696 293.098 395.938 293.098C396.247 293.098 396.519 293.038 396.751 292.92C396.983 292.801 397.177 292.617 397.332 292.366C397.492 292.111 397.61 291.785 397.688 291.389C397.765 290.988 397.804 290.509 397.804 289.953Z" fill="#242424"/>
<path d="M114.767 319.61H116.012V329.96H114.767V319.61ZM112.472 323.21H115.277V324.23H112.472V323.21ZM112.472 326.06H115.277V327.065H112.472V326.06ZM104.867 321.26H112.472V322.265H104.867V321.26ZM108.707 323C109.317 323 109.852 323.11 110.312 323.33C110.772 323.55 111.132 323.855 111.392 324.245C111.652 324.635 111.782 325.085 111.782 325.595C111.782 326.105 111.652 326.56 111.392 326.96C111.132 327.35 110.772 327.655 110.312 327.875C109.852 328.085 109.317 328.19 108.707 328.19C108.107 328.19 107.577 328.085 107.117 327.875C106.657 327.655 106.297 327.35 106.037 326.96C105.777 326.56 105.647 326.105 105.647 325.595C105.647 325.085 105.777 324.635 106.037 324.245C106.297 323.855 106.657 323.55 107.117 323.33C107.577 323.11 108.107 323 108.707 323ZM108.707 323.99C108.147 323.99 107.692 324.14 107.342 324.44C106.992 324.73 106.817 325.115 106.817 325.595C106.817 326.085 106.992 326.48 107.342 326.78C107.692 327.07 108.147 327.215 108.707 327.215C109.267 327.215 109.722 327.07 110.072 326.78C110.432 326.48 110.612 326.085 110.612 325.595C110.612 325.115 110.432 324.73 110.072 324.44C109.722 324.14 109.267 323.99 108.707 323.99ZM108.107 319.595H109.337V321.89H108.107V319.595ZM107.297 331.85H116.327V332.87H107.297V331.85ZM107.297 329.06H108.542V332.33H107.297V329.06ZM128.716 319.595H129.916V333.17H128.716V319.595ZM126.571 325.07H129.181V326.12H126.571V325.07ZM125.761 319.88H126.946V332.48H125.761V319.88ZM121.156 321.695H122.116V323.27C122.116 324.07 122.051 324.835 121.921 325.565C121.791 326.295 121.591 326.965 121.321 327.575C121.061 328.185 120.736 328.73 120.346 329.21C119.956 329.68 119.501 330.07 118.981 330.38L118.201 329.42C118.861 329.06 119.406 328.575 119.836 327.965C120.266 327.345 120.591 326.635 120.811 325.835C121.041 325.035 121.156 324.18 121.156 323.27V321.695ZM121.381 321.695H122.356V323.27C122.356 324.09 122.466 324.87 122.686 325.61C122.906 326.35 123.231 327.01 123.661 327.59C124.091 328.16 124.626 328.61 125.266 328.94L124.531 329.9C123.841 329.51 123.261 328.985 122.791 328.325C122.321 327.665 121.966 326.905 121.726 326.045C121.496 325.185 121.381 324.26 121.381 323.27V321.695ZM118.531 321.2H124.816V322.22H118.531V321.2ZM141.134 319.595H142.379V326.975H141.134V319.595ZM142.034 322.715H144.374V323.765H142.034V322.715ZM137.354 320.405H138.704C138.704 321.545 138.449 322.56 137.939 323.45C137.429 324.34 136.699 325.09 135.749 325.7C134.809 326.31 133.674 326.78 132.344 327.11L131.879 326.09C133.049 325.8 134.039 325.41 134.849 324.92C135.669 324.43 136.289 323.855 136.709 323.195C137.139 322.535 137.354 321.815 137.354 321.035V320.405ZM132.479 320.405H138.119V321.425H132.479V320.405ZM133.319 327.68H134.489V329.3H136.829V327.68H137.969V332.975H133.319V327.68ZM134.489 330.26V332H136.829V330.26H134.489ZM140.399 327.53H141.374V328.67C141.374 329.25 141.274 329.83 141.074 330.41C140.884 330.99 140.594 331.515 140.204 331.985C139.814 332.455 139.319 332.83 138.719 333.11L138.044 332.165C138.574 331.935 139.009 331.63 139.349 331.25C139.699 330.86 139.959 330.44 140.129 329.99C140.309 329.54 140.399 329.1 140.399 328.67V327.53ZM140.639 327.53H141.599V328.625C141.599 329.065 141.684 329.515 141.854 329.975C142.034 330.435 142.294 330.86 142.634 331.25C142.984 331.63 143.414 331.935 143.924 332.165L143.264 333.11C142.664 332.84 142.169 332.47 141.779 332C141.389 331.52 141.099 330.99 140.909 330.41C140.729 329.82 140.639 329.225 140.639 328.625V327.53Z" fill="#242424"/>
<path d="M210.237 319.595H211.482V333.17H210.237V319.595ZM206.262 321.065H207.492C207.492 322.045 207.372 322.99 207.132 323.9C206.902 324.81 206.537 325.675 206.037 326.495C205.537 327.305 204.887 328.06 204.087 328.76C203.287 329.46 202.317 330.085 201.177 330.635L200.517 329.63C201.827 329 202.907 328.265 203.757 327.425C204.607 326.585 205.237 325.65 205.647 324.62C206.057 323.58 206.262 322.46 206.262 321.26V321.065ZM201.147 321.065H206.787V322.07H201.147V321.065ZM224.171 319.595H225.356V333.17H224.171V319.595ZM221.876 325.04H224.486V326.06H221.876V325.04ZM221.096 319.895H222.251V332.465H221.096V319.895ZM214.331 328.775H215.216C215.886 328.775 216.491 328.77 217.031 328.76C217.581 328.74 218.101 328.7 218.591 328.64C219.091 328.58 219.601 328.495 220.121 328.385L220.241 329.42C219.701 329.53 219.176 329.615 218.666 329.675C218.166 329.735 217.636 329.775 217.076 329.795C216.526 329.815 215.906 329.825 215.216 329.825H214.331V328.775ZM214.331 321.245H219.371V322.265H215.576V329.255H214.331V321.245ZM236.634 319.595H237.879V326.975H236.634V319.595ZM237.534 322.715H239.874V323.765H237.534V322.715ZM232.854 320.405H234.204C234.204 321.545 233.949 322.56 233.439 323.45C232.929 324.34 232.199 325.09 231.249 325.7C230.309 326.31 229.174 326.78 227.844 327.11L227.379 326.09C228.549 325.8 229.539 325.41 230.349 324.92C231.169 324.43 231.789 323.855 232.209 323.195C232.639 322.535 232.854 321.815 232.854 321.035V320.405ZM227.979 320.405H233.619V321.425H227.979V320.405ZM228.819 327.68H229.989V329.3H232.329V327.68H233.469V332.975H228.819V327.68ZM229.989 330.26V332H232.329V330.26H229.989ZM235.899 327.53H236.874V328.67C236.874 329.25 236.774 329.83 236.574 330.41C236.384 330.99 236.094 331.515 235.704 331.985C235.314 332.455 234.819 332.83 234.219 333.11L233.544 332.165C234.074 331.935 234.509 331.63 234.849 331.25C235.199 330.86 235.459 330.44 235.629 329.99C235.809 329.54 235.899 329.1 235.899 328.67V327.53ZM236.139 327.53H237.099V328.625C237.099 329.065 237.184 329.515 237.354 329.975C237.534 330.435 237.794 330.86 238.134 331.25C238.484 331.63 238.914 331.935 239.424 332.165L238.764 333.11C238.164 332.84 237.669 332.47 237.279 332C236.889 331.52 236.599 330.99 236.409 330.41C236.229 329.82 236.139 329.225 236.139 328.625V327.53Z" fill="#242424"/>
<path d="M295.852 330.41H308.152V331.445H295.852V330.41ZM301.357 327.155H302.587V330.71H301.357V327.155ZM297.292 320.555H298.537V322.97H305.437V320.555H306.667V327.5H297.292V320.555ZM298.537 323.99V326.48H305.437V323.99H298.537ZM316.596 323.12H319.641V324.155H316.596V323.12ZM319.266 319.595H320.511V327.68H319.266V319.595ZM316.041 328.1C316.981 328.1 317.786 328.2 318.456 328.4C319.136 328.6 319.656 328.89 320.016 329.27C320.376 329.64 320.556 330.095 320.556 330.635C320.556 331.435 320.151 332.055 319.341 332.495C318.541 332.935 317.441 333.155 316.041 333.155C314.641 333.155 313.536 332.935 312.726 332.495C311.926 332.055 311.526 331.435 311.526 330.635C311.526 330.095 311.706 329.64 312.066 329.27C312.436 328.89 312.956 328.6 313.626 328.4C314.306 328.2 315.111 328.1 316.041 328.1ZM316.041 329.075C315.361 329.075 314.776 329.135 314.286 329.255C313.796 329.375 313.416 329.55 313.146 329.78C312.886 330.01 312.756 330.295 312.756 330.635C312.756 330.955 312.886 331.23 313.146 331.46C313.416 331.69 313.796 331.87 314.286 332C314.776 332.12 315.361 332.18 316.041 332.18C316.731 332.18 317.316 332.12 317.796 332C318.286 331.87 318.661 331.69 318.921 331.46C319.191 331.23 319.326 330.955 319.326 330.635C319.326 330.295 319.191 330.01 318.921 329.78C318.661 329.55 318.286 329.375 317.796 329.255C317.316 329.135 316.731 329.075 316.041 329.075ZM312.801 320.975H313.821V322.07C313.821 322.9 313.661 323.68 313.341 324.41C313.031 325.13 312.591 325.765 312.021 326.315C311.451 326.855 310.791 327.27 310.041 327.56L309.396 326.57C309.906 326.39 310.366 326.145 310.776 325.835C311.196 325.525 311.556 325.17 311.856 324.77C312.166 324.37 312.401 323.94 312.561 323.48C312.721 323.02 312.801 322.55 312.801 322.07V320.975ZM313.041 320.975H314.061V322.055C314.061 322.635 314.196 323.2 314.466 323.75C314.736 324.3 315.121 324.785 315.621 325.205C316.121 325.625 316.696 325.955 317.346 326.195L316.716 327.185C315.976 326.915 315.331 326.525 314.781 326.015C314.231 325.495 313.801 324.895 313.491 324.215C313.191 323.535 313.041 322.815 313.041 322.055V320.975ZM309.786 320.585H317.031V321.605H309.786V320.585ZM332.134 319.595H333.379V326.975H332.134V319.595ZM333.034 322.715H335.374V323.765H333.034V322.715ZM328.354 320.405H329.704C329.704 321.545 329.449 322.56 328.939 323.45C328.429 324.34 327.699 325.09 326.749 325.7C325.809 326.31 324.674 326.78 323.344 327.11L322.879 326.09C324.049 325.8 325.039 325.41 325.849 324.92C326.669 324.43 327.289 323.855 327.709 323.195C328.139 322.535 328.354 321.815 328.354 321.035V320.405ZM323.479 320.405H329.119V321.425H323.479V320.405ZM324.319 327.68H325.489V329.3H327.829V327.68H328.969V332.975H324.319V327.68ZM325.489 330.26V332H327.829V330.26H325.489ZM331.399 327.53H332.374V328.67C332.374 329.25 332.274 329.83 332.074 330.41C331.884 330.99 331.594 331.515 331.204 331.985C330.814 332.455 330.319 332.83 329.719 333.11L329.044 332.165C329.574 331.935 330.009 331.63 330.349 331.25C330.699 330.86 330.959 330.44 331.129 329.99C331.309 329.54 331.399 329.1 331.399 328.67V327.53ZM331.639 327.53H332.599V328.625C332.599 329.065 332.684 329.515 332.854 329.975C333.034 330.435 333.294 330.86 333.634 331.25C333.984 331.63 334.414 331.935 334.924 332.165L334.264 333.11C333.664 332.84 333.169 332.47 332.779 332C332.389 331.52 332.099 330.99 331.909 330.41C331.729 329.82 331.639 329.225 331.639 328.625V327.53Z" fill="#242424"/>
<path d="M135.5 198L220.5 124L304.5 130" stroke="black" stroke-width="2" stroke-linecap="round" stroke-linejoin="round"/>
<path d="M218.5 122C220.157 122 221.5 123.343 221.5 125C221.5 126.657 220.157 128 218.5 128C216.843 128 215.5 126.657 215.5 125C215.5 123.343 216.843 122 218.5 122Z" stroke="black" stroke-width="2"/>
<path d="M301 127C302.657 127 304 128.343 304 130C304 131.657 302.657 133 301 133C299.343 133 298 131.657 298 130C298 128.343 299.343 127 301 127Z" stroke="black" stroke-width="2"/>
<path d="M140 191C141.657 191 143 192.343 143 194C143 195.657 141.657 197 140 197C138.343 197 137 195.657 137 194C137 192.343 138.343 191 140 191Z" stroke="black" stroke-width="2"/>
<rect width="32" height="48" transform="translate(124 246)" fill="#F24216"/>
<rect width="32" height="48" transform="translate(124 246)" fill="#FF7A00"/>
<rect width="32" height="72" transform="translate(204 222)" fill="#19C5F0"/>
<rect width="32" height="72" transform="translate(204 222)" fill="#00CAFF"/>
<rect width="32" height="24" transform="translate(284 270)" fill="#0078D4"/>
<rect width="12" height="12" transform="translate(84.5 364)" fill="#FF7A00"/>
<path d="M114.454 364.436H115.616V374.096H114.454V364.436ZM112.312 367.796H114.93V368.748H112.312V367.796ZM112.312 370.456H114.93V371.394H112.312V370.456ZM105.214 365.976H112.312V366.914H105.214V365.976ZM108.798 367.6C109.367 367.6 109.867 367.703 110.296 367.908C110.725 368.113 111.061 368.398 111.304 368.762C111.547 369.126 111.668 369.546 111.668 370.022C111.668 370.498 111.547 370.923 111.304 371.296C111.061 371.66 110.725 371.945 110.296 372.15C109.867 372.346 109.367 372.444 108.798 372.444C108.238 372.444 107.743 372.346 107.314 372.15C106.885 371.945 106.549 371.66 106.306 371.296C106.063 370.923 105.942 370.498 105.942 370.022C105.942 369.546 106.063 369.126 106.306 368.762C106.549 368.398 106.885 368.113 107.314 367.908C107.743 367.703 108.238 367.6 108.798 367.6ZM108.798 368.524C108.275 368.524 107.851 368.664 107.524 368.944C107.197 369.215 107.034 369.574 107.034 370.022C107.034 370.479 107.197 370.848 107.524 371.128C107.851 371.399 108.275 371.534 108.798 371.534C109.321 371.534 109.745 371.399 110.072 371.128C110.408 370.848 110.576 370.479 110.576 370.022C110.576 369.574 110.408 369.215 110.072 368.944C109.745 368.664 109.321 368.524 108.798 368.524ZM108.238 364.422H109.386V366.564H108.238V364.422ZM107.482 375.86H115.91V376.812H107.482V375.86ZM107.482 373.256H108.644V376.308H107.482V373.256ZM127.473 364.422H128.593V377.092H127.473V364.422ZM125.471 369.532H127.907V370.512H125.471V369.532ZM124.715 364.688H125.821V376.448H124.715V364.688ZM120.417 366.382H121.313V367.852C121.313 368.599 121.252 369.313 121.131 369.994C121.01 370.675 120.823 371.301 120.571 371.87C120.328 372.439 120.025 372.948 119.661 373.396C119.297 373.835 118.872 374.199 118.387 374.488L117.659 373.592C118.275 373.256 118.784 372.803 119.185 372.234C119.586 371.655 119.89 370.993 120.095 370.246C120.31 369.499 120.417 368.701 120.417 367.852V366.382ZM120.627 366.382H121.537V367.852C121.537 368.617 121.64 369.345 121.845 370.036C122.05 370.727 122.354 371.343 122.755 371.884C123.156 372.416 123.656 372.836 124.253 373.144L123.567 374.04C122.923 373.676 122.382 373.186 121.943 372.57C121.504 371.954 121.173 371.245 120.949 370.442C120.734 369.639 120.627 368.776 120.627 367.852V366.382ZM117.967 365.92H123.833V366.872H117.967V365.92ZM139.064 364.422H140.226V371.31H139.064V364.422ZM139.904 367.334H142.088V368.314H139.904V367.334ZM135.536 365.178H136.796C136.796 366.242 136.558 367.189 136.082 368.02C135.606 368.851 134.924 369.551 134.038 370.12C133.16 370.689 132.101 371.128 130.86 371.436L130.426 370.484C131.518 370.213 132.442 369.849 133.198 369.392C133.963 368.935 134.542 368.398 134.934 367.782C135.335 367.166 135.536 366.494 135.536 365.766V365.178ZM130.986 365.178H136.25V366.13H130.986V365.178ZM131.77 371.968H132.862V373.48H135.046V371.968H136.11V376.91H131.77V371.968ZM132.862 374.376V376H135.046V374.376H132.862ZM138.378 371.828H139.288V372.892C139.288 373.433 139.194 373.975 139.008 374.516C138.83 375.057 138.56 375.547 138.196 375.986C137.832 376.425 137.37 376.775 136.81 377.036L136.18 376.154C136.674 375.939 137.08 375.655 137.398 375.3C137.724 374.936 137.967 374.544 138.126 374.124C138.294 373.704 138.378 373.293 138.378 372.892V371.828ZM138.602 371.828H139.498V372.85C139.498 373.261 139.577 373.681 139.736 374.11C139.904 374.539 140.146 374.936 140.464 375.3C140.79 375.655 141.192 375.939 141.668 376.154L141.052 377.036C140.492 376.784 140.03 376.439 139.666 376C139.302 375.552 139.031 375.057 138.854 374.516C138.686 373.965 138.602 373.41 138.602 372.85V371.828Z" fill="#242424"/>
<rect width="12" height="12" transform="translate(159.5 364)" fill="#F24216"/>
<rect width="12" height="12" transform="translate(159.5 364)" fill="#00CAFF"/>
<path d="M189.426 364.422H190.588V377.092H189.426V364.422ZM185.716 365.794H186.864C186.864 366.709 186.752 367.591 186.528 368.44C186.313 369.289 185.973 370.097 185.506 370.862C185.039 371.618 184.433 372.323 183.686 372.976C182.939 373.629 182.034 374.213 180.97 374.726L180.354 373.788C181.577 373.2 182.585 372.514 183.378 371.73C184.171 370.946 184.759 370.073 185.142 369.112C185.525 368.141 185.716 367.096 185.716 365.976V365.794ZM180.942 365.794H186.206V366.732H180.942V365.794ZM202.431 364.422H203.537V377.092H202.431V364.422ZM200.289 369.504H202.725V370.456H200.289V369.504ZM199.561 364.702H200.639V376.434H199.561V364.702ZM193.247 372.99H194.073C194.698 372.99 195.263 372.985 195.767 372.976C196.28 372.957 196.766 372.92 197.223 372.864C197.69 372.808 198.166 372.729 198.651 372.626L198.763 373.592C198.259 373.695 197.769 373.774 197.293 373.83C196.826 373.886 196.332 373.923 195.809 373.942C195.296 373.961 194.717 373.97 194.073 373.97H193.247V372.99ZM193.247 365.962H197.951V366.914H194.409V373.438H193.247V365.962ZM214.064 364.422H215.226V371.31H214.064V364.422ZM214.904 367.334H217.088V368.314H214.904V367.334ZM210.536 365.178H211.796C211.796 366.242 211.558 367.189 211.082 368.02C210.606 368.851 209.924 369.551 209.038 370.12C208.16 370.689 207.101 371.128 205.86 371.436L205.426 370.484C206.518 370.213 207.442 369.849 208.198 369.392C208.963 368.935 209.542 368.398 209.934 367.782C210.335 367.166 210.536 366.494 210.536 365.766V365.178ZM205.986 365.178H211.25V366.13H205.986V365.178ZM206.77 371.968H207.862V373.48H210.046V371.968H211.11V376.91H206.77V371.968ZM207.862 374.376V376H210.046V374.376H207.862ZM213.378 371.828H214.288V372.892C214.288 373.433 214.194 373.975 214.008 374.516C213.83 375.057 213.56 375.547 213.196 375.986C212.832 376.425 212.37 376.775 211.81 377.036L211.18 376.154C211.674 375.939 212.08 375.655 212.398 375.3C212.724 374.936 212.967 374.544 213.126 374.124C213.294 373.704 213.378 373.293 213.378 372.892V371.828ZM213.602 371.828H214.498V372.85C214.498 373.261 214.577 373.681 214.736 374.11C214.904 374.539 215.146 374.936 215.464 375.3C215.79 375.655 216.192 375.939 216.668 376.154L216.052 377.036C215.492 376.784 215.03 376.439 214.666 376C214.302 375.552 214.031 375.057 213.854 374.516C213.686 373.965 213.602 373.41 213.602 372.85V371.828Z" fill="#242424"/>
<rect width="12" height="12" transform="translate(234.5 364)" fill="#0076D1"/>
<path d="M255.2 374.516H266.68V375.482H255.2V374.516ZM260.338 371.478H261.486V374.796H260.338V371.478ZM256.544 365.318H257.706V367.572H264.146V365.318H265.294V371.8H256.544V365.318ZM257.706 368.524V370.848H264.146V368.524H257.706ZM274.561 367.712H277.403V368.678H274.561V367.712ZM277.053 364.422H278.215V371.968H277.053V364.422ZM274.043 372.36C274.92 372.36 275.672 372.453 276.297 372.64C276.932 372.827 277.417 373.097 277.753 373.452C278.089 373.797 278.257 374.222 278.257 374.726C278.257 375.473 277.879 376.051 277.123 376.462C276.376 376.873 275.35 377.078 274.043 377.078C272.736 377.078 271.705 376.873 270.949 376.462C270.202 376.051 269.829 375.473 269.829 374.726C269.829 374.222 269.997 373.797 270.333 373.452C270.678 373.097 271.164 372.827 271.789 372.64C272.424 372.453 273.175 372.36 274.043 372.36ZM274.043 373.27C273.408 373.27 272.862 373.326 272.405 373.438C271.948 373.55 271.593 373.713 271.341 373.928C271.098 374.143 270.977 374.409 270.977 374.726C270.977 375.025 271.098 375.281 271.341 375.496C271.593 375.711 271.948 375.879 272.405 376C272.862 376.112 273.408 376.168 274.043 376.168C274.687 376.168 275.233 376.112 275.681 376C276.138 375.879 276.488 375.711 276.731 375.496C276.983 375.281 277.109 375.025 277.109 374.726C277.109 374.409 276.983 374.143 276.731 373.928C276.488 373.713 276.138 373.55 275.681 373.438C275.233 373.326 274.687 373.27 274.043 373.27ZM271.019 365.71H271.971V366.732C271.971 367.507 271.822 368.235 271.523 368.916C271.234 369.588 270.823 370.181 270.291 370.694C269.759 371.198 269.143 371.585 268.443 371.856L267.841 370.932C268.317 370.764 268.746 370.535 269.129 370.246C269.521 369.957 269.857 369.625 270.137 369.252C270.426 368.879 270.646 368.477 270.795 368.048C270.944 367.619 271.019 367.18 271.019 366.732V365.71ZM271.243 365.71H272.195V366.718C272.195 367.259 272.321 367.787 272.573 368.3C272.825 368.813 273.184 369.266 273.651 369.658C274.118 370.05 274.654 370.358 275.261 370.582L274.673 371.506C273.982 371.254 273.38 370.89 272.867 370.414C272.354 369.929 271.952 369.369 271.663 368.734C271.383 368.099 271.243 367.427 271.243 366.718V365.71ZM268.205 365.346H274.967V366.298H268.205V365.346ZM289.064 364.422H290.226V371.31H289.064V364.422ZM289.904 367.334H292.088V368.314H289.904V367.334ZM285.536 365.178H286.796C286.796 366.242 286.558 367.189 286.082 368.02C285.606 368.851 284.924 369.551 284.038 370.12C283.16 370.689 282.101 371.128 280.86 371.436L280.426 370.484C281.518 370.213 282.442 369.849 283.198 369.392C283.963 368.935 284.542 368.398 284.934 367.782C285.335 367.166 285.536 366.494 285.536 365.766V365.178ZM280.986 365.178H286.25V366.13H280.986V365.178ZM281.77 371.968H282.862V373.48H285.046V371.968H286.11V376.91H281.77V371.968ZM282.862 374.376V376H285.046V374.376H282.862ZM288.378 371.828H289.288V372.892C289.288 373.433 289.194 373.975 289.008 374.516C288.83 375.057 288.56 375.547 288.196 375.986C287.832 376.425 287.37 376.775 286.81 377.036L286.18 376.154C286.674 375.939 287.08 375.655 287.398 375.3C287.724 374.936 287.967 374.544 288.126 374.124C288.294 373.704 288.378 373.293 288.378 372.892V371.828ZM288.602 371.828H289.498V372.85C289.498 373.261 289.577 373.681 289.736 374.11C289.904 374.539 290.146 374.936 290.464 375.3C290.79 375.655 291.192 375.939 291.668 376.154L291.052 377.036C290.492 376.784 290.03 376.439 289.666 376C289.302 375.552 289.031 375.057 288.854 374.516C288.686 373.965 288.602 373.41 288.602 372.85V371.828Z" fill="#242424"/>
<path d="M315.5 365C318.261 365 320.5 367.239 320.5 370C320.5 372.761 318.261 375 315.5 375C312.739 375 310.5 372.761 310.5 370C310.5 367.239 312.739 365 315.5 365Z" stroke="black" stroke-width="2"/>
<path d="M333.21 372.248H334.372V375.244H333.21V372.248ZM337.466 372.248H338.614V375.244H337.466V372.248ZM330.76 366.298H341.05V367.25H330.76V366.298ZM330.2 374.684H341.68V375.636H330.2V374.684ZM335.912 368.062C337.191 368.062 338.199 368.272 338.936 368.692C339.683 369.103 340.056 369.686 340.056 370.442C340.056 371.189 339.683 371.772 338.936 372.192C338.199 372.603 337.191 372.808 335.912 372.808C334.624 372.808 333.611 372.603 332.874 372.192C332.137 371.772 331.768 371.189 331.768 370.442C331.768 369.686 332.137 369.103 332.874 368.692C333.611 368.272 334.624 368.062 335.912 368.062ZM335.898 368.972C335.291 368.972 334.764 369.033 334.316 369.154C333.877 369.266 333.537 369.434 333.294 369.658C333.061 369.873 332.944 370.134 332.944 370.442C332.944 370.741 333.061 371.002 333.294 371.226C333.537 371.441 333.877 371.609 334.316 371.73C334.764 371.842 335.291 371.898 335.898 371.898C336.523 371.898 337.055 371.842 337.494 371.73C337.933 371.609 338.273 371.441 338.516 371.226C338.759 371.002 338.88 370.741 338.88 370.442C338.88 370.134 338.759 369.873 338.516 369.658C338.273 369.434 337.933 369.266 337.494 369.154C337.055 369.033 336.523 368.972 335.898 368.972ZM335.338 364.632H336.486V366.858H335.338V364.632ZM345.893 370.106H347.041V372.458H345.893V370.106ZM349.911 370.106H351.073V372.458H349.911V370.106ZM348.511 364.576C349.911 364.576 351.003 364.767 351.787 365.15C352.571 365.523 352.963 366.06 352.963 366.76C352.963 367.469 352.571 368.015 351.787 368.398C351.003 368.771 349.911 368.958 348.511 368.958C347.12 368.958 346.028 368.771 345.235 368.398C344.451 368.015 344.059 367.469 344.059 366.76C344.059 366.06 344.451 365.523 345.235 365.15C346.028 364.767 347.12 364.576 348.511 364.576ZM348.511 365.458C347.83 365.458 347.246 365.509 346.761 365.612C346.276 365.715 345.902 365.864 345.641 366.06C345.389 366.247 345.263 366.48 345.263 366.76C345.263 367.04 345.389 367.283 345.641 367.488C345.902 367.684 346.276 367.833 346.761 367.936C347.246 368.029 347.83 368.076 348.511 368.076C349.202 368.076 349.79 368.029 350.275 367.936C350.76 367.833 351.129 367.684 351.381 367.488C351.642 367.283 351.773 367.04 351.773 366.76C351.773 366.48 351.642 366.247 351.381 366.06C351.129 365.864 350.76 365.715 350.275 365.612C349.79 365.509 349.202 365.458 348.511 365.458ZM342.799 369.728H354.237V370.666H342.799V369.728ZM344.185 371.898H352.767V374.754H345.347V376.28H344.213V373.9H351.633V372.794H344.185V371.898ZM344.213 376.042H353.145V376.952H344.213V376.042Z" fill="#242424"/>
</svg>
